<?xml version="1.0" encoding="UTF-8"?>
<svg width="160px" height="50px" viewBox="0 0 160 50" version="1.1" xmlns="http://www.w3.org/2000/svg" xmlns:xlink="http://www.w3.org/1999/xlink">
    <title>Group 34</title>
    <g id="Page-1" stroke="none" stroke-width="1" fill="none" fill-rule="evenodd">
        <g id="iPhone-8" transform="translate(-108.000000, -43.000000)" fill="#231916">
            <g id="Group-34" transform="translate(108.000000, 43.000000)">
                <path d="M116.235755,0 L111.800831,0 L111.800831,0.815902649 L114.067448,0.815902649 C116.525594,0.815902649 116.93411,2.45200938 116.93411,4.90440979 L116.950756,15.3171889 C116.950756,22.4645978 114.900734,25.7323143 108.643351,25.7323143 C103.246868,25.7323143 101.401692,22.265559 101.401692,16.5427048 L101.401692,4.90440979 C101.401692,0.815902649 100.585051,0 97.7168229,0 L94.0350877,0 L94.0350877,0.815902649 L94.8577989,0.815902649 C97.3081111,0.815902649 97.7168229,2.45200938 97.7168229,4.90440979 L97.7168229,15.3171889 C97.7168229,23.2836288 100.174773,27.3684211 108.151017,27.3684211 C116.537736,27.3684211 118.585603,23.2836288 118.585603,15.3171889 L118.585603,7.18944556 C118.547415,3.33321552 119.03642,0 116.235755,0" id="Fill-4"></path>
                <path d="M5.6783257,17.9448824 L15.619959,17.9448824 L10.7517685,6.31404212 L5.6783257,17.9448824 Z M25.9649123,27.1665361 C25.5592621,27.286861 24.9516607,27.3684211 24.341729,27.3684211 C22.5158178,27.3684211 19.2308087,26.7641094 17.4441226,22.1537623 L16.4318419,19.5474884 L5.07130682,19.5474884 L1.82629961,27.1665361 L0,27.1665361 L11.3595642,0.701754386 L12.5765147,0.701754386 L21.5035371,22.1537623 C22.7602953,25.1626548 23.7339334,26.1624844 25.9649123,26.3647533 L25.9649123,27.1665361 Z" id="Fill-5"></path>
                <path d="M75.5598658,21.3324393 C80.9373475,8.93319133 77.9270871,15.77573 84.388977,0.402411625 L86.3157895,0.402411625 L74.7975533,27.3684211 L74.0746145,27.3684211 L64.7641843,5.11037721 C63.5222815,2.09180844 62.558107,1.0876094 60.3508772,0.885151467 L60.3508772,0.0795576836 C60.5500503,0.0795576836 61.3536571,0 61.71359,0 C63.6813127,0 66.812383,0.522422368 68.6998218,5.11037721 L75.5598658,21.3324393 Z" id="Fill-6"></path>
                <path d="M160,28.7719298 C154.06728,28.7719298 152.43174,26.1209636 152.43174,19.997294 L152.43174,4.28486935 L142.209667,26.9360595 L141.390234,26.9360595 L130.758151,3.87898165 L130.758151,26.9360595 L129.122807,26.9360595 L129.122807,0 L133.009391,0 L142.821062,21.2225748 L152.43174,0 L156.110481,0 L156.110481,19.997294 C156.110481,24.8968547 157.338163,27.9546853 160,27.9546853 L160,28.7719298 Z" id="Fill-7"></path>
                <path d="M49.2846086,0.701754386 C52.0791092,0.701754386 52.6774805,2.31703116 52.6774805,3.93462845 L52.6774805,6.96484358 L51.8781237,6.96484358 C51.8781237,3.73138939 50.0854937,2.31703116 46.8892132,2.31703116 L39.466697,2.31703116 L39.466697,12.8224215 L50.2415822,12.8224215 L50.2415822,14.4390519 L39.466697,14.4390519 L39.466697,25.7529509 L46.4499873,25.7529509 C50.0417431,25.7529509 52.0399438,24.5387377 53.2380236,21.3074107 L54.0350877,21.5112299 L52.6390792,25.3495668 C52.1998534,26.5614595 51.2417334,27.3684211 49.6435931,27.3684211 L35.8737949,27.3684211 L35.8737949,5.5500986 C35.8737949,3.12728013 35.4731613,1.51026297 33.0789122,1.51026297 L32.2807018,1.51026297 L32.2807018,0.701754386 L49.2846086,0.701754386 Z" id="Fill-8"></path>
                <path d="M39.6119917,25.8164727 L39.6119917,21.8238901 L35.9460544,21.754386 L35.9460544,22.7099743 C35.9460544,25.0372464 35.5371254,26.593469 33.0950513,26.593469 L32.2807018,26.593469 L32.2807018,27.3684211 L42.7828482,27.3684211 C42.7894753,26.8657243 42.7964922,26.335895 42.8070175,25.8164727 L39.6119917,25.8164727 Z" id="Fill-9"></path>
                <path d="M116.530032,42.8070175 L116.530032,46.660696 C116.530032,48.4288145 116.076088,49.5323959 115.087719,49.5323959 L115.087719,49.8245614 C117.286604,49.8245614 117.894737,48.8710432 117.894737,46.660696 L117.894737,42.8070175 L116.530032,42.8070175 Z" id="Fill-10"></path>
                <path d="M110.747834,42.4223799 L112.854353,39.2982456 L114.385965,39.2982456 L112.11045,42.6982595 C111.661536,43.3843073 111.086227,44.2105263 110.201059,44.2105263 L108.77193,44.2105263 L108.77193,43.9346467 C109.657701,43.866691 110.284251,43.110659 110.747834,42.4223799" id="Fill-11"></path>
                <path d="M118.726502,42.4223799 L116.620208,39.2982456 L115.087719,39.2982456 L117.363239,42.6982595 C117.813842,43.3843073 118.385837,44.2105263 119.271766,44.2105263 L120.701754,44.2105263 L120.701754,43.9346467 C119.816428,43.866691 119.191976,43.110659 118.726502,42.4223799" id="Fill-12"></path>
                <path d="M117.78877,42.9269197 L116.507808,43.2927698 L114.169317,43.2927698 C114.169317,44.0757999 114.185249,45.2752175 114.007472,46.0437801 C113.551859,48.0622976 112.268176,49.0387566 110.304085,49.8245614 L110.109211,49.7167486 C111.325863,49.0088306 111.94371,48.3617556 112.430021,47.1118008 C112.608963,46.6932334 112.771585,46.2544511 112.837061,45.8015977 C112.919052,45.1107237 112.9004,44.0000931 112.9004,43.2927698 L111.69968,43.2927698 L111.702594,42.7202124 L116.507808,42.7202124 L117.532111,42.7152577 L117.78877,42.9269197 Z M117.14178,37.7305007 L117.14178,39.0416947 L116.084252,39.0416947 L116.084252,37.7305007 L113.491435,37.7305007 L113.491435,38.8760118 L112.447119,38.8760118 L112.447119,37.7305007 L109.473684,37.7305007 L109.473684,37.2197771 L112.447119,37.2197771 L112.447119,35.7894737 L113.491435,35.7894737 L113.491435,37.2197771 L116.084252,37.2197771 L116.084252,35.7894737 L117.14178,35.7894737 L117.14178,37.2197771 L120,37.2197771 L120,37.7305007 L117.14178,37.7305007 Z" id="Fill-13"></path>
                <polygon id="Fill-14" points="77.484807 42.7608772 77.6029123 42.7608772 77.6029123 42.1514035 77.484807 42.1514035"></polygon>
                <polygon id="Fill-15" points="77.484807 40.6555088 77.6029123 40.6555088 77.6029123 40.0462456 77.484807 40.0462456"></polygon>
                <path d="M74.7673252,45.6140351 L74.7673252,46.8961546 C74.7673252,48.5319969 74.4253774,49.5539966 73.6842105,49.5539966 L73.6842105,49.8245614 C75.3356706,49.8245614 75.7894737,48.9391497 75.7894737,46.8961546 L75.7894737,45.6140351 L74.7673252,45.6140351 Z" id="Fill-16"></path>
                <path d="M78.2165701,46.2560515 L78.2165701,45.6140351 L77.1929825,45.6140351 L77.1929825,46.2560515 C77.1929825,48.2570189 77.6489549,49.122807 79.2982456,49.122807 L79.2982456,48.8579384 C78.5597247,48.8579384 78.2165701,47.8568648 78.2165701,46.2560515" id="Fill-17"></path>
                <path d="M79.6776176,44.2105263 L79.6776176,47.2990824 C79.6776176,48.7103342 79.3366112,49.5906353 78.5964912,49.5906353 L78.5964912,49.8245614 C80.2473274,49.8245614 80.7017544,49.0627624 80.7017544,47.2990824 L80.7017544,44.2105263 L79.6776176,44.2105263 Z" id="Fill-18"></path>
                <path d="M77.5517067,41.1092078 L77.4420169,41.1092078 L77.4420169,42.4354489 L77.5517067,42.4354489 L77.5517067,42.9903655 L77.4420169,42.9903655 L77.4420169,44.6355639 L75.8584551,44.6355639 L75.8584551,42.9903655 L77.4420169,42.9903655 L77.4420169,42.4354489 L75.8584551,42.4354489 L75.8584551,41.1092078 L77.4420169,41.1092078 L77.4420169,40.5550579 L75.8584551,40.5550579 L75.8584551,39.1732292 L77.4420169,39.1732292 L77.4420169,40.5550579 L77.5517067,40.5550579 L77.5517067,41.1092078 Z M80.8910883,37.1460105 L79.8125692,37.1460105 L79.8125692,44.6491732 L78.539502,44.6491732 L78.539502,39.1856885 L79.2905158,39.1856885 L79.2905158,38.6332637 L78.539502,38.6332637 L78.539502,36.4912281 L77.4420169,36.4912281 L77.4420169,38.6332637 L75.8584551,38.6332637 L75.8584551,36.4912281 L74.7633163,36.4912281 L74.7633163,38.6332637 L73.813844,38.6332637 L73.813844,39.1856885 L74.7633163,39.1856885 L74.7633163,44.6491732 L73.6842105,44.6491732 L73.6842105,45.1603866 L79.8125692,45.1603866 L79.8125692,45.2125238 L80.8895241,45.2125238 C80.8949988,44.8697981 80.8910883,44.5328229 80.8910883,44.2117571 L80.8910883,40.685401 L82.0372594,40.685401 L82.0372594,49.8245614 L83.1320071,49.8245614 L83.1320071,40.685401 L84.2105263,40.685401 L84.2105263,40.1350847 L80.8910883,40.1350847 L80.8910883,37.1460105 Z" id="Fill-19"></path>
                <path d="M83.2923134,35.9506316 L83.2923134,36.2118947 C83.2923134,36.9961053 82.8623473,37.1285263 82.2147075,37.1285263 L80.7017544,37.1285263 L80.7017544,37.7335789 L82.2147075,37.7335789 C83.2923134,37.7335789 83.5087719,37.4723158 83.5087719,36.5556842 L83.5087719,35.9506316 L83.2923134,35.9506316 Z" id="Fill-20"></path>
                <path d="M42.7614386,40.358386 L41.7547018,40.358386 L41.7547018,40.2825965 C41.7547018,39.6101754 41.6441754,39.1619649 40.9721754,39.1619649 L40.7473333,39.1619649 L40.7473333,38.9398596 L41.7547018,38.9398596 C42.5382807,38.9398596 42.7614386,39.1619649 42.7614386,40.2825965 L42.7614386,40.358386 Z" id="Fill-21"></path>
                <path d="M45.4575088,39.1619649 C45.4575088,40.1602807 45.2568772,40.358386 44.5623509,40.358386 L43.6652982,40.358386 L43.6652982,40.1602807 L43.8652982,40.1602807 C44.4615088,40.1602807 44.5623509,39.7604912 44.5623509,39.1619649 L44.5623509,38.9398596 L45.4575088,38.9398596 L45.4575088,39.1619649 Z" id="Fill-22"></path>
                <polygon id="Fill-23" points="46.5337666 37.8947368 39.2982456 37.8947368 39.2982456 44.2105263 40.4014237 44.2105263 40.4014237 38.378679 46.5337666 38.378679 47.7192982 37.8947368"></polygon>
                <path d="M46.6578113,37.1929825 L46.6578113,41.4497412 C46.6578113,42.9897082 46.3817554,43.951672 45.6140351,43.951672 L45.6140351,44.2105263 C47.3258127,44.2105263 47.7192982,43.377204 47.7192982,41.4497412 L47.7192982,37.1929825 L46.6578113,37.1929825 Z" id="Fill-24"></path>
                <polygon id="Fill-25" points="40.7017544 41.3391579 45.6140351 41.3391579 45.6140351 40.7661053 40.7017544 40.7661053"></polygon>
                <path d="M46.6099183,48.168692 L44.910887,45.6140351 L43.5087719,45.6140351 L45.3605873,48.4242518 C45.7740244,49.0607049 46.2968032,49.8245614 47.1096876,49.8245614 L48.4210526,49.8245614 L48.4210526,49.5727654 C47.6079842,49.5076522 47.0340319,48.8040159 46.6099183,48.168692" id="Fill-26"></path>
                <path d="M40.4075195,48.168692 L42.1087885,45.6140351 L43.5087719,45.6140351 L43.4669676,45.6765136 L41.655571,48.4242518 C41.2437895,49.0607049 40.7196705,49.8245614 39.9078938,49.8245614 L38.5964912,49.8245614 L38.5964912,49.5727654 C39.4067947,49.5076522 39.981926,48.8040159 40.4075195,48.168692" id="Fill-27"></path>
                <path d="M43.8802832,43.8360351 C43.0660952,43.8360351 42.5287272,44.6040351 42.1052632,45.2867719 L43.6134616,45.2867719 C44.0292798,44.7078246 44.2110164,44.1743509 44.9122807,44.115193 L44.9122807,43.8360351 L43.8802832,43.8360351 Z" id="Fill-28"></path>
                <path d="M45.2389474,41.088066 L45.2389474,40.7017544 L44.3421053,40.7017544 L44.3421053,41.088066 C44.3421053,42.2877633 44.7418947,42.8070175 46.1842105,42.8070175 L46.1842105,42.6463363 C45.5368421,42.6463363 45.2389474,42.047587 45.2389474,41.088066" id="Fill-29"></path>
                <path d="M41.7802807,41.2157153 L41.7802807,40.7017544 L42.758386,40.7017544 L42.758386,41.2157153 C42.758386,42.8170049 42.3234386,43.5087719 40.750386,43.5087719 L40.750386,43.2932933 C41.4556491,43.2932933 41.7802807,42.4972024 41.7802807,41.2157153" id="Fill-30"></path>
                <path d="M43.9396597,35.7894737 C43.9396597,36.8180457 43.4562978,37.3987095 42.2430953,37.3987095 L41.4035088,37.3987095 L41.4035088,37.8947368 L43.0568945,37.8947368 C44.0048276,37.8947368 44.2105263,37.3987095 44.2105263,36.8827118 L44.2105263,35.7894737 L43.9396597,35.7894737 Z" id="Fill-31"></path>
                <polygon id="Fill-32" points="42.5772632 44.2105263 43.7385263 44.2105263 43.7385263 38.5964912 42.5772632 38.5964912"></polygon>
                <polygon id="Fill-33" points="38.5964912 45.5498947 48.4210526 45.5498947 48.4210526 44.9764211 38.5964912 44.9764211"></polygon>
            </g>
        </g>
    </g>
</svg>